<?xml version="1.0" encoding="utf-8"?>
<!-- Generator: Adobe Illustrator 21.0.0, SVG Export Plug-In . SVG Version: 6.00 Build 0)  -->
<svg version="1.1" id="Layer_1" xmlns="http://www.w3.org/2000/svg" xmlns:xlink="http://www.w3.org/1999/xlink" x="0px" y="0px"
	 viewBox="0 0 800 345" style="enable-background:new 0 0 800 345;" xml:space="preserve">
<style type="text/css">
	.st0{fill:#261625;}
	.st1{fill:#FFFFFF;}
</style>
<g>
	<rect class="st0" width="800" height="345"/>
</g>
<g>
	<path class="st1" d="M248.8,121.1c0,4.8-1.6,8.5-4.9,11.1s-7.9,3.9-13.9,3.9h-7.7v20.6h-3.5v-50h12.2
		C242.8,106.8,248.8,111.6,248.8,121.1z M222.2,133.1h6.9c5.6,0,9.7-0.9,12.2-2.8c2.5-1.9,3.8-4.9,3.8-9c0-3.9-1.2-6.7-3.6-8.6
		c-2.4-1.9-6-2.8-11-2.8h-8.3V133.1z"/>
	<path class="st1" d="M262.2,156.8h-3.4v-53.2h3.4V156.8z"/>
	<path class="st1" d="M297.2,156.8l-0.9-5.9h-0.3c-1.9,2.4-3.8,4.1-5.8,5.1c-2,1-4.3,1.5-7,1.5c-3.6,0-6.5-0.9-8.5-2.8s-3-4.5-3-7.8
		c0-3.6,1.5-6.4,4.5-8.4c3-2,7.4-3.1,13.1-3.2l7.1-0.2v-2.5c0-3.5-0.7-6.2-2.2-8s-3.7-2.7-6.9-2.7c-3.4,0-7,1-10.7,2.9l-1.3-2.9
		c4.1-1.9,8.1-2.9,12.1-2.9c4.1,0,7.1,1.1,9.1,3.2s3,5.4,3,9.9v24.7H297.2z M283.5,154.4c4,0,7.1-1.1,9.4-3.4
		c2.3-2.3,3.4-5.4,3.4-9.5v-3.7l-6.5,0.3c-5.2,0.3-8.9,1.1-11.2,2.4c-2.2,1.4-3.3,3.5-3.3,6.4c0,2.3,0.7,4.1,2.1,5.4
		C278.9,153.7,280.9,154.4,283.5,154.4z"/>
	<path class="st1" d="M326.5,157.4c-5.3,0-9.5-1.7-12.5-5s-4.5-8-4.5-14c0-6.2,1.6-10.9,4.7-14.4c3.1-3.4,7.4-5.1,12.8-5.1
		c3.2,0,6.3,0.6,9.2,1.7l-0.9,3c-3.2-1.1-6-1.6-8.4-1.6c-4.6,0-8,1.4-10.4,4.2c-2.3,2.8-3.5,6.9-3.5,12.2c0,5,1.2,8.9,3.5,11.8
		s5.6,4.3,9.8,4.3c3.4,0,6.5-0.6,9.4-1.8v3.1C333.5,156.9,330.4,157.4,326.5,157.4z"/>
	<path class="st1" d="M360,157.4c-5.4,0-9.6-1.7-12.6-5c-3-3.3-4.5-8-4.5-14c0-5.9,1.5-10.7,4.4-14.2c2.9-3.6,6.8-5.3,11.8-5.3
		c4.4,0,7.8,1.5,10.4,4.6s3.8,7.2,3.8,12.4v2.7h-26.8c0,5.1,1.2,9,3.6,11.7c2.3,2.7,5.7,4,10,4c2.1,0,4-0.1,5.6-0.4s3.6-0.9,6.1-1.9
		v3.1c-2.1,0.9-4,1.5-5.8,1.9S362.1,157.4,360,157.4z M359,121.9c-3.6,0-6.4,1.2-8.6,3.5s-3.4,5.8-3.8,10.2h23
		c0-4.3-0.9-7.7-2.8-10.1S362.3,121.9,359,121.9z"/>
	<path class="st1" d="M409.3,156.8v-24.1c0-3.7-0.8-6.5-2.4-8.2c-1.6-1.7-4-2.5-7.3-2.5c-4.4,0-7.7,1.1-9.8,3.4
		c-2.1,2.2-3.1,5.9-3.1,10.9v20.5h-3.4v-53.2h3.4v16.9l-0.2,4.8h0.2c1.4-2.2,3.1-3.9,5.3-4.9s4.8-1.5,7.9-1.5
		c8.4,0,12.6,4.5,12.6,13.6v24.3H409.3z"/>
	<path class="st1" d="M455.4,138.1c0,6.1-1.5,10.8-4.4,14.2c-2.9,3.4-7,5.1-12.2,5.1c-3.3,0-6.1-0.8-8.6-2.4s-4.4-3.8-5.7-6.8
		s-2-6.3-2-10.2c0-6.1,1.5-10.8,4.4-14.2s7-5.1,12.1-5.1c5.1,0,9.1,1.7,12,5.1C454,127.5,455.4,132.2,455.4,138.1z M426.1,138.1
		c0,5.1,1.1,9.1,3.4,11.9c2.2,2.9,5.4,4.3,9.5,4.3s7.3-1.4,9.5-4.3c2.2-2.9,3.4-6.8,3.4-11.9c0-5.1-1.1-9.1-3.4-11.9
		c-2.3-2.8-5.5-4.2-9.6-4.2s-7.3,1.4-9.5,4.2C427.2,129,426.1,133,426.1,138.1z"/>
	<path class="st1" d="M469.1,156.8h-3.4v-53.2h3.4V156.8z"/>
	<path class="st1" d="M495.1,118.9c2.7,0,5,0.5,7,1.5s3.7,2.7,5.3,5h0.2c-0.1-2.9-0.2-5.7-0.2-8.4v-13.4h3.3v53.2h-2.2l-0.9-5.7
		h-0.3c-2.8,4.2-6.9,6.4-12.2,6.4c-5.1,0-9-1.6-11.8-4.8s-4.1-7.8-4.1-13.9c0-6.4,1.3-11.3,4-14.7S490,118.9,495.1,118.9z
		 M495.1,122c-4.1,0-7.1,1.4-9.1,4.3c-2,2.8-3.1,7-3.1,12.4c0,10.5,4.1,15.8,12.3,15.8c4.2,0,7.3-1.2,9.2-3.7s2.9-6.5,2.9-12.1v-0.6
		c0-5.7-1-9.9-2.9-12.4C502.5,123.2,499.4,122,495.1,122z"/>
	<path class="st1" d="M538.2,157.4c-5.4,0-9.6-1.7-12.6-5c-3-3.3-4.5-8-4.5-14c0-5.9,1.5-10.7,4.4-14.2c2.9-3.6,6.8-5.3,11.8-5.3
		c4.4,0,7.8,1.5,10.4,4.6s3.8,7.2,3.8,12.4v2.7h-26.8c0,5.1,1.2,9,3.6,11.7c2.3,2.7,5.7,4,10,4c2.1,0,4-0.1,5.6-0.4
		c1.6-0.3,3.6-0.9,6.1-1.9v3.1c-2.1,0.9-4,1.5-5.8,1.9S540.3,157.4,538.2,157.4z M537.2,121.9c-3.6,0-6.4,1.2-8.6,3.5
		s-3.4,5.8-3.8,10.2h23c0-4.3-0.9-7.7-2.8-10.1S540.5,121.9,537.2,121.9z"/>
	<path class="st1" d="M576.2,118.9c1.6,0,3.3,0.2,5.1,0.5l-0.6,3.2c-1.5-0.4-3.2-0.6-4.8-0.6c-3.2,0-5.8,1.3-7.8,4
		c-2,2.7-3,6.1-3,10.2v20.5h-3.4v-37.2h2.9l0.3,6.7h0.2c1.5-2.7,3.2-4.7,4.9-5.8C571.7,119.4,573.8,118.9,576.2,118.9z"/>
	<path class="st1" d="M277.1,190.1c4.8,0,8.6,1.1,11.6,3.3c2.9,2.2,4.4,5.1,4.4,8.8c0,2.6-0.7,4.8-2.1,6.8c-1.4,2-3.7,3.8-6.8,5.3
		c3.7,2,6.4,4.1,8,6.3c1.6,2.2,2.4,4.6,2.4,7.2c0,4.1-1.6,7.4-4.8,9.9s-7.4,3.7-12.7,3.7c-5.5,0-9.8-1.2-12.9-3.5s-4.7-5.6-4.7-9.9
		c0-2.8,0.8-5.4,2.3-7.6c1.5-2.2,3.9-4.2,7.3-5.8c-2.8-1.8-4.9-3.7-6.2-5.8s-1.9-4.3-1.9-6.7c0-3.6,1.5-6.5,4.4-8.7
		S272.3,190.1,277.1,190.1z M269.3,227.5c0,2,0.7,3.5,2.1,4.6s3.2,1.6,5.6,1.6c2.6,0,4.6-0.6,5.9-1.7s1.9-2.6,1.9-4.5
		c0-1.5-0.6-3-1.9-4.3c-1.3-1.3-3.4-2.8-6.3-4.3C271.7,221.2,269.3,224,269.3,227.5z M277,197.9c-1.8,0-3.3,0.5-4.4,1.4
		c-1.1,0.9-1.7,2.2-1.7,3.7c0,1.4,0.4,2.6,1.3,3.7c0.9,1.1,2.5,2.2,4.8,3.3c2.2-1,3.8-2.1,4.7-3.2s1.3-2.4,1.3-3.8
		c0-1.6-0.6-2.8-1.7-3.7S278.8,197.9,277,197.9z"/>
	<path class="st1" d="M334.4,215.8c0,8.7-1.4,15.2-4.3,19.4c-2.9,4.2-7.3,6.3-13.2,6.3c-5.8,0-10.1-2.2-13-6.5
		c-2.9-4.3-4.4-10.7-4.4-19.2c0-8.8,1.4-15.3,4.3-19.5c2.8-4.2,7.2-6.3,13.2-6.3c5.8,0,10.1,2.2,13.1,6.6
		C333,200.9,334.4,207.3,334.4,215.8z M310,215.8c0,6.1,0.5,10.5,1.6,13.2c1.1,2.7,2.8,4,5.3,4c2.5,0,4.2-1.3,5.3-4
		s1.6-7.1,1.6-13.1c0-6.1-0.6-10.5-1.7-13.2c-1.1-2.7-2.9-4-5.3-4c-2.5,0-4.3,1.3-5.3,4C310.5,205.2,310,209.6,310,215.8z"/>
	<path class="st1" d="M374.4,215.8c0,8.7-1.4,15.2-4.3,19.4c-2.9,4.2-7.3,6.3-13.2,6.3c-5.8,0-10.1-2.2-13-6.5
		c-2.9-4.3-4.4-10.7-4.4-19.2c0-8.8,1.4-15.3,4.3-19.5c2.8-4.2,7.2-6.3,13.2-6.3c5.8,0,10.1,2.2,13.1,6.6
		C372.9,200.9,374.4,207.3,374.4,215.8z M350,215.8c0,6.1,0.5,10.5,1.6,13.2c1.1,2.7,2.8,4,5.3,4c2.5,0,4.2-1.3,5.3-4
		s1.6-7.1,1.6-13.1c0-6.1-0.6-10.5-1.7-13.2c-1.1-2.7-2.9-4-5.3-4c-2.5,0-4.3,1.3-5.3,4C350.5,205.2,350,209.6,350,215.8z"/>
	<path class="st1" d="M390.2,221.2l-12.3-18.7h11.8l7.4,12.2l7.5-12.2h11.8L404,221.2l13,19.5h-11.9l-8-13.1l-8.1,13.1h-11.8
		L390.2,221.2z"/>
	<path class="st1" d="M453.1,202c0,3.1-0.9,5.8-2.8,8s-4.5,3.7-8,4.5v0.2c4,0.5,7.1,1.7,9.2,3.7s3.1,4.6,3.1,7.9
		c0,4.8-1.7,8.6-5.2,11.2c-3.5,2.7-8.5,4-14.9,4c-5.4,0-10.2-0.9-14.4-2.7v-9c1.9,1,4.1,1.8,6.4,2.4s4.6,0.9,6.9,0.9
		c3.5,0,6.1-0.6,7.7-1.8s2.5-3.1,2.5-5.7c0-2.3-1-4-2.9-5s-5-1.5-9.2-1.5h-3.8V211h3.9c3.9,0,6.7-0.5,8.5-1.5c1.8-1,2.7-2.8,2.7-5.2
		c0-3.8-2.4-5.7-7.1-5.7c-1.6,0-3.3,0.3-5,0.8c-1.7,0.5-3.6,1.5-5.7,2.8l-4.9-7.3c4.6-3.3,10-4.9,16.3-4.9c5.2,0,9.3,1,12.3,3.1
		C451.7,195.3,453.1,198.2,453.1,202z"/>
	<path class="st1" d="M496.2,230.4h-6v10.4h-10.3v-10.4h-21.3V223l21.9-32.3h9.7v31.4h6V230.4z M479.8,222.2v-8.5
		c0-1.4,0.1-3.5,0.2-6.2s0.2-4.3,0.3-4.7H480c-0.8,1.9-1.9,3.7-3,5.5l-9.2,13.8H479.8z"/>
	<path class="st1" d="M518.3,208.8c4.8,0,8.7,1.4,11.5,4.1c2.9,2.7,4.3,6.4,4.3,11.1c0,5.6-1.7,9.9-5.2,12.9s-8.4,4.5-14.8,4.5
		c-5.6,0-10-0.9-13.5-2.7v-9.1c1.8,1,3.9,1.7,6.3,2.3c2.4,0.6,4.7,0.9,6.8,0.9c6.4,0,9.7-2.6,9.7-7.9c0-5-3.3-7.6-10-7.6
		c-1.2,0-2.5,0.1-4,0.4s-2.6,0.5-3.6,0.8l-4.2-2.3l1.9-25.5h27.1v9h-17.8l-0.9,9.8l1.2-0.2C514.5,209,516.2,208.8,518.3,208.8z"/>
</g>
</svg>
