<?xml version="1.0" encoding="utf-8"?>
<!-- Generator: Adobe Illustrator 21.0.0, SVG Export Plug-In . SVG Version: 6.00 Build 0)  -->
<svg version="1.1" id="Layer_1" xmlns="http://www.w3.org/2000/svg" xmlns:xlink="http://www.w3.org/1999/xlink" x="0px" y="0px"
	 viewBox="0 0 900 900" style="enable-background:new 0 0 900 900;" xml:space="preserve">
<style type="text/css">
	.st0{fill:#261625;}
	.st1{fill:#FFFFFF;}
</style>
<g>
	<rect class="st0" width="900" height="900"/>
</g>
<g>
	<path class="st1" d="M213,431.9c0,5.5-1.9,9.8-5.6,12.7c-3.8,2.9-9.1,4.4-15.9,4.4h-8.8v23.6h-4v-57.1h14
		C206.2,415.4,213,420.9,213,431.9z M182.6,445.5h7.9c6.4,0,11.1-1.1,13.9-3.2c2.9-2.1,4.3-5.6,4.3-10.3c0-4.4-1.4-7.7-4.1-9.8
		c-2.7-2.1-6.9-3.2-12.6-3.2h-9.5V445.5z"/>
	<path class="st1" d="M228.3,472.6h-3.9v-60.8h3.9V472.6z"/>
	<path class="st1" d="M268.3,472.6l-1-6.7H267c-2.1,2.7-4.3,4.7-6.6,5.8c-2.3,1.1-4.9,1.7-8,1.7c-4.2,0-7.4-1.1-9.7-3.2
		c-2.3-2.1-3.5-5.1-3.5-8.9c0-4.1,1.7-7.4,5.2-9.6c3.5-2.3,8.4-3.5,15-3.6l8.1-0.2v-2.8c0-4-0.8-7.1-2.5-9.1
		c-1.6-2.1-4.3-3.1-7.9-3.1c-3.9,0-8,1.1-12.2,3.3l-1.4-3.4c4.7-2.2,9.3-3.3,13.8-3.3c4.7,0,8.1,1.2,10.4,3.6s3.5,6.2,3.5,11.3v28.2
		H268.3z M252.7,469.8c4.5,0,8.1-1.3,10.7-3.9c2.6-2.6,3.9-6.2,3.9-10.8V451l-7.4,0.3c-6,0.3-10.2,1.2-12.8,2.8
		c-2.5,1.6-3.8,4-3.8,7.4c0,2.7,0.8,4.7,2.4,6.2C247.4,469.1,249.7,469.8,252.7,469.8z"/>
	<path class="st1" d="M301.9,473.3c-6.1,0-10.8-1.9-14.3-5.7s-5.2-9.2-5.2-16c0-7,1.8-12.5,5.4-16.4c3.6-3.9,8.5-5.9,14.6-5.9
		c3.7,0,7.2,0.6,10.5,1.9l-1.1,3.4c-3.7-1.2-6.9-1.8-9.6-1.8c-5.2,0-9.2,1.6-11.8,4.8c-2.7,3.2-4,7.8-4,13.9c0,5.7,1.3,10.2,4,13.5
		c2.7,3.2,6.4,4.9,11.3,4.9c3.9,0,7.4-0.7,10.7-2.1v3.6C309.8,472.7,306.3,473.3,301.9,473.3z"/>
	<path class="st1" d="M340.1,473.3c-6.2,0-11-1.9-14.4-5.7c-3.5-3.8-5.2-9.1-5.2-16c0-6.8,1.7-12.2,5-16.3c3.3-4.1,7.8-6.1,13.5-6.1
		c5,0,8.9,1.7,11.8,5.2c2.9,3.5,4.3,8.2,4.3,14.2v3.1h-30.6c0.1,5.8,1.4,10.3,4.1,13.4c2.7,3.1,6.5,4.6,11.5,4.6
		c2.4,0,4.6-0.2,6.4-0.5c1.8-0.3,4.2-1.1,7-2.2v3.5c-2.4,1-4.6,1.8-6.6,2.1S342.5,473.3,340.1,473.3z M338.9,432.7
		c-4.1,0-7.4,1.3-9.8,4c-2.5,2.7-3.9,6.6-4.3,11.7H351c0-4.9-1.1-8.8-3.2-11.5C345.7,434.1,342.7,432.7,338.9,432.7z"/>
	<path class="st1" d="M396.4,472.6V445c0-4.3-0.9-7.4-2.7-9.3c-1.8-1.9-4.6-2.9-8.4-2.9c-5.1,0-8.8,1.3-11.2,3.8
		c-2.4,2.6-3.5,6.7-3.5,12.5v23.4h-3.9v-60.8h3.9v19.3l-0.2,5.4h0.3c1.6-2.6,3.6-4.4,6-5.5c2.4-1.1,5.4-1.7,9-1.7
		c9.6,0,14.5,5.2,14.5,15.5v27.8H396.4z"/>
	<path class="st1" d="M449.1,451.3c0,6.9-1.7,12.3-5,16.2c-3.4,3.9-8,5.8-13.9,5.8c-3.7,0-7-0.9-9.8-2.7c-2.8-1.8-5-4.4-6.5-7.7
		c-1.5-3.4-2.3-7.2-2.3-11.6c0-6.9,1.7-12.3,5-16.2s8-5.8,13.8-5.8c5.8,0,10.4,2,13.7,5.9C447.5,439.1,449.1,444.4,449.1,451.3z
		 M415.6,451.3c0,5.8,1.3,10.4,3.8,13.7c2.6,3.3,6.2,4.9,10.9,4.9s8.3-1.6,10.9-4.9c2.6-3.3,3.8-7.8,3.8-13.7
		c0-5.9-1.3-10.4-3.9-13.6c-2.6-3.2-6.2-4.8-10.9-4.8s-8.3,1.6-10.8,4.8C416.9,440.8,415.6,445.4,415.6,451.3z"/>
	<path class="st1" d="M464.8,472.6h-3.9v-60.8h3.9V472.6z"/>
	<path class="st1" d="M494.5,429.3c3.1,0,5.7,0.6,8,1.7c2.2,1.1,4.2,3,6,5.7h0.2c-0.2-3.3-0.2-6.5-0.2-9.6v-15.3h3.8v60.8h-2.5
		l-1-6.5h-0.3c-3.2,4.8-7.9,7.3-13.9,7.3c-5.9,0-10.3-1.8-13.4-5.5c-3.1-3.6-4.6-9-4.6-15.9c0-7.3,1.5-13,4.6-16.8
		C484.2,431.2,488.7,429.3,494.5,429.3z M494.5,432.8c-4.6,0-8.1,1.6-10.4,4.9c-2.3,3.3-3.5,8-3.5,14.2c0,12,4.7,18,14,18
		c4.8,0,8.3-1.4,10.5-4.2c2.2-2.8,3.4-7.4,3.4-13.8v-0.7c0-6.6-1.1-11.3-3.3-14.2C503,434.2,499.5,432.8,494.5,432.8z"/>
	<path class="st1" d="M543.8,473.3c-6.2,0-11-1.9-14.4-5.7c-3.5-3.8-5.2-9.1-5.2-16c0-6.8,1.7-12.2,5-16.3c3.3-4.1,7.8-6.1,13.5-6.1
		c5,0,8.9,1.7,11.8,5.2c2.9,3.5,4.3,8.2,4.3,14.2v3.1h-30.6c0.1,5.8,1.4,10.3,4.1,13.4c2.7,3.1,6.5,4.6,11.5,4.6
		c2.4,0,4.6-0.2,6.4-0.5c1.8-0.3,4.2-1.1,7-2.2v3.5c-2.4,1-4.6,1.8-6.6,2.1S546.2,473.3,543.8,473.3z M542.6,432.7
		c-4.1,0-7.4,1.3-9.8,4c-2.5,2.7-3.9,6.6-4.3,11.7h26.3c0-4.9-1.1-8.8-3.2-11.5C549.3,434.1,546.4,432.7,542.6,432.7z"/>
	<path class="st1" d="M587.2,429.3c1.8,0,3.7,0.2,5.8,0.5l-0.7,3.7c-1.8-0.4-3.6-0.7-5.5-0.7c-3.6,0-6.6,1.5-8.9,4.6
		c-2.3,3.1-3.5,7-3.5,11.6v23.4h-3.9v-42.5h3.3l0.4,7.7h0.3c1.7-3.1,3.6-5.3,5.6-6.6C582,429.9,584.4,429.3,587.2,429.3z"/>
	<path class="st1" d="M648.4,472.6h-12.1v-33l0.1-5.4l0.2-5.9c-2,2-3.4,3.3-4.2,3.9l-6.6,5.3l-5.8-7.3l18.4-14.6h9.9V472.6z"/>
	<path class="st1" d="M665.5,434.7c0-2.2,0.6-3.8,1.8-5c1.2-1.1,2.9-1.7,5.1-1.7c2.2,0,3.8,0.6,5,1.7c1.2,1.1,1.8,2.8,1.8,4.9
		c0,2.1-0.6,3.7-1.8,4.9c-1.2,1.2-2.9,1.7-5,1.7c-2.2,0-3.9-0.6-5.1-1.7C666.1,438.5,665.5,436.8,665.5,434.7z M665.5,467
		c0-2.2,0.6-3.8,1.8-5c1.2-1.1,2.9-1.7,5.1-1.7c2.2,0,3.8,0.6,5,1.7c1.2,1.1,1.8,2.8,1.8,4.9c0,2.1-0.6,3.7-1.8,4.9
		c-1.2,1.2-2.9,1.8-5,1.8c-2.2,0-3.9-0.6-5.1-1.7C666.1,470.7,665.5,469.1,665.5,467z"/>
	<path class="st1" d="M716.8,472.6h-12.1v-33l0.1-5.4l0.2-5.9c-2,2-3.4,3.3-4.2,3.9l-6.6,5.3l-5.8-7.3l18.4-14.6h9.9V472.6z"/>
</g>
</svg>
