<?xml version="1.0" encoding="utf-8"?>
<!-- Generator: Adobe Illustrator 21.0.0, SVG Export Plug-In . SVG Version: 6.00 Build 0)  -->
<svg version="1.1" id="Layer_1" xmlns="http://www.w3.org/2000/svg" xmlns:xlink="http://www.w3.org/1999/xlink" x="0px" y="0px"
	 viewBox="0 0 1600 900" style="enable-background:new 0 0 1600 900;" xml:space="preserve">
<style type="text/css">
	.st0{fill:#261625;}
	.st1{fill:#FFFFFF;}
</style>
<g>
	<rect class="st0" width="1600" height="900"/>
</g>
<g>
	<path class="st1" d="M475.2,427.3c0,6.9-2.3,12.2-7,15.9s-11.3,5.5-19.9,5.5h-11v29.5h-5v-71.4h17.5
		C466.7,406.8,475.2,413.6,475.2,427.3z M437.2,444.4h9.8c8,0,13.9-1.3,17.4-4s5.4-7,5.4-12.9c0-5.5-1.7-9.6-5.1-12.2s-8.6-4-15.7-4
		h-11.8V444.4z"/>
	<path class="st1" d="M494.4,478.2h-4.8v-76h4.8V478.2z"/>
	<path class="st1" d="M544.4,478.2l-1.2-8.4h-0.4c-2.7,3.4-5.4,5.8-8.2,7.3s-6.1,2.1-10,2.1c-5.2,0-9.3-1.3-12.2-4
		s-4.3-6.4-4.3-11.1c0-5.2,2.2-9.2,6.5-12.1s10.6-4.4,18.7-4.5l10.1-0.3v-3.5c0-5-1-8.9-3.1-11.4s-5.4-3.9-9.9-3.9
		c-4.9,0-10,1.4-15.3,4.1l-1.8-4.2c5.8-2.7,11.6-4.1,17.3-4.1c5.8,0,10.2,1.5,13.1,4.5s4.3,7.7,4.3,14.2v35.3H544.4z M524.8,474.8
		c5.7,0,10.1-1.6,13.4-4.9s4.9-7.7,4.9-13.5v-5.2l-9.3,0.4c-7.5,0.4-12.8,1.5-15.9,3.5s-4.8,5-4.8,9.2c0,3.3,1,5.9,3.1,7.7
		S521.1,474.8,524.8,474.8z"/>
	<path class="st1" d="M586.3,479.2c-7.6,0-13.5-2.4-17.8-7.2s-6.4-11.5-6.4-20c0-8.8,2.2-15.6,6.7-20.5s10.6-7.3,18.3-7.3
		c4.6,0,9,0.8,13.2,2.4l-1.3,4.3c-4.6-1.5-8.6-2.3-12-2.3c-6.5,0-11.4,2-14.8,6s-5,9.8-5,17.4c0,7.2,1.7,12.8,5,16.8s8,6.1,14.1,6.1
		c4.8,0,9.3-0.9,13.4-2.6v4.5C596.2,478.3,591.8,479.2,586.3,479.2z"/>
	<path class="st1" d="M634.1,479.2c-7.7,0-13.7-2.4-18-7.1s-6.5-11.4-6.5-20c0-8.5,2.1-15.2,6.3-20.3s9.8-7.6,16.8-7.6
		c6.3,0,11.2,2.2,14.8,6.5s5.4,10.3,5.4,17.8v3.9h-38.2c0.1,7.3,1.8,12.9,5.1,16.7s8.1,5.8,14.3,5.8c3,0,5.7-0.2,8-0.6
		s5.2-1.3,8.7-2.7v4.4c-3,1.3-5.8,2.2-8.3,2.7S637.1,479.2,634.1,479.2z M632.6,428.4c-5.1,0-9.2,1.7-12.3,5.1s-4.9,8.2-5.4,14.6
		h32.8c0-6.2-1.3-11-4-14.4S637.4,428.4,632.6,428.4z"/>
	<path class="st1" d="M704.5,478.2v-34.4c0-5.3-1.1-9.2-3.4-11.6s-5.7-3.6-10.4-3.6c-6.3,0-11,1.6-13.9,4.8s-4.4,8.4-4.4,15.6v29.3
		h-4.8v-76h4.8v24.2l-0.2,6.8h0.3c2-3.2,4.5-5.5,7.5-6.9s6.8-2.1,11.3-2.1c12,0,18.1,6.5,18.1,19.4v34.7H704.5z"/>
	<path class="st1" d="M770.4,451.6c0,8.7-2.1,15.4-6.3,20.3s-10,7.3-17.4,7.3c-4.7,0-8.8-1.1-12.3-3.4s-6.3-5.5-8.2-9.7
		s-2.8-9-2.8-14.6c0-8.7,2.1-15.4,6.3-20.2s10-7.3,17.3-7.3c7.3,0,13,2.4,17.2,7.3S770.4,443.1,770.4,451.6z M728.5,451.6
		c0,7.3,1.6,13,4.8,17.1s7.7,6.1,13.6,6.1s10.4-2,13.6-6.1s4.8-9.8,4.8-17.1c0-7.3-1.6-13-4.9-17s-7.8-6.1-13.6-6.1s-10.4,2-13.5,6
		S728.5,444.2,728.5,451.6z"/>
	<path class="st1" d="M789.9,478.2h-4.8v-76h4.8V478.2z"/>
	<path class="st1" d="M827.1,424.1c3.8,0,7.2,0.7,10,2.1s5.3,3.8,7.5,7.2h0.3c-0.2-4.1-0.3-8.1-0.3-12.1v-19.1h4.8v76h-3.2l-1.2-8.1
		h-0.4c-4,6.1-9.8,9.1-17.4,9.1c-7.3,0-12.9-2.3-16.8-6.8s-5.8-11.2-5.8-19.9c0-9.2,1.9-16.2,5.8-21S819.8,424.1,827.1,424.1z
		 M827.1,428.5c-5.8,0-10.1,2-13.1,6.1s-4.4,10-4.4,17.7c0,15,5.8,22.6,17.5,22.6c6,0,10.4-1.7,13.2-5.2s4.2-9.2,4.2-17.2v-0.8
		c0-8.2-1.4-14.1-4.1-17.7S833.3,428.5,827.1,428.5z"/>
	<path class="st1" d="M888.6,479.2c-7.7,0-13.7-2.4-18-7.1s-6.5-11.4-6.5-20c0-8.5,2.1-15.2,6.3-20.3s9.8-7.6,16.8-7.6
		c6.3,0,11.2,2.2,14.8,6.5s5.4,10.3,5.4,17.8v3.9h-38.2c0.1,7.3,1.8,12.9,5.1,16.7s8.1,5.8,14.3,5.8c3,0,5.7-0.2,8-0.6
		s5.2-1.3,8.7-2.7v4.4c-3,1.3-5.8,2.2-8.3,2.7S891.7,479.2,888.6,479.2z M887.2,428.4c-5.1,0-9.2,1.7-12.3,5.1s-4.9,8.2-5.4,14.6
		h32.8c0-6.2-1.3-11-4-14.4S892,428.4,887.2,428.4z"/>
	<path class="st1" d="M943,424.1c2.2,0,4.7,0.2,7.2,0.7l-0.9,4.6c-2.2-0.6-4.5-0.8-6.9-0.8c-4.5,0-8.2,1.9-11.1,5.8
		s-4.3,8.7-4.3,14.6v29.3h-4.8v-53.1h4.1l0.5,9.6h0.3c2.2-3.9,4.5-6.6,7-8.2S939.5,424.1,943,424.1z"/>
	<path class="st1" d="M1019.4,478.2h-15.1v-41.3l0.1-6.8l0.2-7.4c-2.5,2.5-4.2,4.2-5.2,4.9l-8.2,6.6l-7.3-9.1l23-18.3h12.4V478.2z"
		/>
	<path class="st1" d="M1038.7,447.9c0-14.1,3-24.6,9-31.5c6-6.9,14.9-10.4,26.8-10.4c4.1,0,7.3,0.2,9.6,0.7v12.1
		c-2.9-0.7-5.8-1-8.6-1c-5.2,0-9.4,0.8-12.7,2.3s-5.7,3.9-7.3,6.9c-1.6,3.1-2.6,7.4-2.9,13h0.6c3.2-5.5,8.4-8.3,15.5-8.3
		c6.4,0,11.4,2,15,6s5.4,9.5,5.4,16.6c0,7.6-2.1,13.6-6.4,18.1s-10.3,6.7-17.9,6.7c-5.3,0-9.9-1.2-13.8-3.7c-3.9-2.4-7-6-9.1-10.7
		C1039.8,460.1,1038.7,454.5,1038.7,447.9z M1064.5,467.1c3.2,0,5.7-1.1,7.4-3.2c1.7-2.2,2.6-5.2,2.6-9.3c0-3.5-0.8-6.2-2.4-8.2
		s-4-3-7.3-3c-3.1,0-5.7,1-7.8,3c-2.2,2-3.2,4.3-3.2,6.9c0,3.9,1,7.1,3.1,9.8C1058.8,465.8,1061.4,467.1,1064.5,467.1z"/>
	<path class="st1" d="M1098,430.9c0-2.7,0.7-4.8,2.2-6.2s3.6-2.1,6.4-2.1c2.7,0,4.8,0.7,6.3,2.1c1.5,1.4,2.2,3.5,2.2,6.2
		c0,2.6-0.8,4.7-2.3,6.1s-3.6,2.2-6.2,2.2c-2.7,0-4.9-0.7-6.3-2.1C1098.7,435.6,1098,433.6,1098,430.9z M1098,471.2
		c0-2.7,0.7-4.8,2.2-6.2s3.6-2.1,6.4-2.1c2.7,0,4.8,0.7,6.3,2.1c1.5,1.4,2.2,3.5,2.2,6.2c0,2.6-0.7,4.6-2.2,6.1
		c-1.5,1.5-3.6,2.2-6.3,2.2c-2.7,0-4.9-0.7-6.3-2.2C1098.7,475.9,1098,473.9,1098,471.2z"/>
	<path class="st1" d="M1174.4,437.3c0,14.1-3,24.6-8.9,31.5c-5.9,6.9-14.9,10.4-26.9,10.4c-4.2,0-7.4-0.2-9.6-0.7v-12.1
		c2.7,0.7,5.6,1,8.6,1c5,0,9.2-0.7,12.5-2.2c3.3-1.5,5.7-3.8,7.5-7c1.7-3.2,2.7-7.5,3-13.1h-0.6c-1.9,3.1-4.1,5.2-6.5,6.4
		c-2.5,1.2-5.6,1.9-9.3,1.9c-6.2,0-11.1-2-14.7-6c-3.6-4-5.4-9.5-5.4-16.6c0-7.6,2.2-13.7,6.5-18.1s10.3-6.7,17.7-6.7
		c5.3,0,9.9,1.2,13.8,3.7s7,6.1,9.1,10.8C1173.3,425.2,1174.4,430.8,1174.4,437.3z M1148.6,418.1c-3.1,0-5.6,1.1-7.3,3.2
		s-2.6,5.2-2.6,9.3c0,3.5,0.8,6.2,2.4,8.2c1.6,2,4,3,7.3,3c3.1,0,5.7-1,7.9-3c2.2-2,3.3-4.3,3.3-6.9c0-3.9-1-7.1-3.1-9.8
		C1154.3,419.4,1151.7,418.1,1148.6,418.1z"/>
</g>
</svg>
