<?xml version="1.0" encoding="utf-8"?>
<!-- Generator: Adobe Illustrator 21.0.0, SVG Export Plug-In . SVG Version: 6.00 Build 0)  -->
<svg version="1.1" id="Layer_1" xmlns="http://www.w3.org/2000/svg" xmlns:xlink="http://www.w3.org/1999/xlink" x="0px" y="0px"
	 viewBox="0 0 310 145" style="enable-background:new 0 0 310 145;" xml:space="preserve">
<style type="text/css">
	.st0{fill:#A2CA52;}
	.st1{fill:#242424;}
</style>
<g>
	<circle class="st0" cx="72.5" cy="72.5" r="72.5"/>
</g>
<path class="st1" d="M144,78.4c0,4.5-1.6,8.1-4.9,10.7s-7.8,3.9-13.6,3.9c-5.3,0-10-1-14.2-3v-9.8c3.4,1.5,6.2,2.6,8.6,3.2
	c2.3,0.6,4.5,0.9,6.4,0.9c2.3,0,4.1-0.4,5.3-1.3c1.2-0.9,1.9-2.2,1.9-4c0-1-0.3-1.9-0.8-2.6c-0.5-0.8-1.4-1.5-2.4-2.2
	c-1.1-0.7-3.2-1.8-6.5-3.4c-3.1-1.4-5.3-2.8-6.9-4.1c-1.5-1.3-2.7-2.9-3.7-4.6c-0.9-1.8-1.4-3.8-1.4-6.2c0-4.4,1.5-7.9,4.5-10.4
	c3-2.5,7.1-3.8,12.4-3.8c2.6,0,5.1,0.3,7.4,0.9s4.8,1.5,7.4,2.6l-3.4,8.2c-2.7-1.1-4.9-1.9-6.6-2.3c-1.7-0.4-3.5-0.6-5.1-0.6
	c-2,0-3.5,0.5-4.6,1.4c-1.1,0.9-1.6,2.2-1.6,3.7c0,0.9,0.2,1.7,0.6,2.4c0.4,0.7,1.1,1.4,2.1,2c0.9,0.6,3.2,1.8,6.7,3.5
	c4.7,2.2,7.9,4.5,9.6,6.7C143.2,72.4,144,75.1,144,78.4z"/>
<path class="st1" d="M151.8,44.1c0-3.4,1.9-5.1,5.7-5.1c3.8,0,5.7,1.7,5.7,5.1c0,1.6-0.5,2.9-1.4,3.8c-0.9,0.9-2.4,1.4-4.3,1.4
	C153.7,49.3,151.8,47.6,151.8,44.1z M162.7,92.2h-10.4V54h10.4V92.2z"/>
<path class="st1" d="M190.9,92.9c-6.2,0-11-1.7-14.4-5.1c-3.5-3.4-5.2-8.2-5.2-14.4c0-6.4,1.6-11.4,4.8-14.9
	c3.2-3.5,7.6-5.2,13.3-5.2c5.4,0,9.6,1.5,12.6,4.6s4.5,7.3,4.5,12.7v5.1h-24.6c0.1,3,1,5.3,2.6,6.9c1.6,1.7,3.9,2.5,6.9,2.5
	c2.3,0,4.5-0.2,6.5-0.7s4.2-1.2,6.4-2.3v8.1c-1.8,0.9-3.8,1.6-5.8,2C196.4,92.7,193.9,92.9,190.9,92.9z M189.5,60.7
	c-2.2,0-3.9,0.7-5.2,2.1c-1.3,1.4-2,3.4-2.2,6h14.6c0-2.6-0.7-4.6-2-6S191.7,60.7,189.5,60.7z"/>
<path class="st1" d="M236.3,53.3c1.4,0,2.6,0.1,3.5,0.3l-0.8,9.8c-0.8-0.2-1.9-0.3-3.1-0.3c-3.3,0-5.9,0.9-7.8,2.6
	c-1.9,1.7-2.8,4.1-2.8,7.2v19.4H215V54h7.9l1.5,6.4h0.5c1.2-2.1,2.8-3.9,4.8-5.2C231.8,54,233.9,53.3,236.3,53.3z"/>
<path class="st0" d="M268.1,53.3c1.4,0,2.6,0.1,3.5,0.3l-0.8,9.8c-0.8-0.2-1.9-0.3-3.1-0.3c-3.3,0-5.9,0.9-7.8,2.6
	c-1.9,1.7-2.8,4.1-2.8,7.2v19.4h-10.4V54h7.9l1.5,6.4h0.5c1.2-2.1,2.8-3.9,4.8-5.2C263.5,54,265.7,53.3,268.1,53.3z"/>
<path class="st1" d="M302.8,92.2l-2-5.2h-0.3c-1.8,2.2-3.6,3.7-5.4,4.6c-1.9,0.9-4.3,1.3-7.3,1.3c-3.7,0-6.6-1-8.7-3.1
	c-2.1-2.1-3.2-5.1-3.2-9c0-4.1,1.4-7,4.3-9c2.8-1.9,7.1-3,12.8-3.2l6.6-0.2v-1.7c0-3.9-2-5.8-5.9-5.8c-3.1,0-6.6,0.9-10.8,2.8
	l-3.5-7c4.4-2.3,9.3-3.5,14.6-3.5c5.1,0,9.1,1.1,11.8,3.3c2.7,2.2,4.1,5.6,4.1,10.2v25.5H302.8z M299.8,74.5l-4,0.1
	c-3,0.1-5.3,0.6-6.8,1.6c-1.5,1-2.2,2.5-2.2,4.6c0,2.9,1.7,4.4,5.1,4.4c2.4,0,4.3-0.7,5.8-2.1c1.4-1.4,2.2-3.2,2.2-5.5V74.5z"/>
</svg>
